<?xml version="1.0" encoding="UTF-8" standalone="no"?>
<svg
   xmlns:dc="http://purl.org/dc/elements/1.1/"
   xmlns:cc="http://creativecommons.org/ns#"
   xmlns:rdf="http://www.w3.org/1999/02/22-rdf-syntax-ns#"
   xmlns:svg="http://www.w3.org/2000/svg"
   xmlns="http://www.w3.org/2000/svg"
   xmlns:sodipodi="http://sodipodi.sourceforge.net/DTD/sodipodi-0.dtd"
   xmlns:inkscape="http://www.inkscape.org/namespaces/inkscape"
   width="2.8in"
   height="1.7in"
   viewBox="1260 1491 3417 2049"
   id="svg2"
   sodipodi:version="0.32"
   inkscape:version="0.46"
   sodipodi:docname="rigidbodycos.svg"
   inkscape:output_extension="org.inkscape.output.svg.inkscape">
  <metadata
     id="metadata65">
    <rdf:RDF>
      <cc:Work
         rdf:about="">
        <dc:format>image/svg+xml</dc:format>
        <dc:type
           rdf:resource="http://purl.org/dc/dcmitype/StillImage" />
      </cc:Work>
    </rdf:RDF>
  </metadata>
  <defs
     id="defs63">
    <inkscape:perspective
       sodipodi:type="inkscape:persp3d"
       inkscape:vp_x="0 : 76.5 : 1"
       inkscape:vp_y="0 : 1000 : 0"
       inkscape:vp_z="252 : 76.5 : 1"
       inkscape:persp3d-origin="126 : 51 : 1"
       id="perspective67" />
  </defs>
  <sodipodi:namedview
     inkscape:window-height="670"
     inkscape:window-width="640"
     inkscape:pageshadow="2"
     inkscape:pageopacity="0.0"
     guidetolerance="10.0"
     gridtolerance="10.0"
     objecttolerance="10.0"
     borderopacity="1.0"
     bordercolor="#666666"
     pagecolor="#ffffff"
     id="base"
     showgrid="false"
     inkscape:zoom="2.1746032"
     inkscape:cx="126"
     inkscape:cy="76.500001"
     inkscape:window-x="63"
     inkscape:window-y="8"
     inkscape:current-layer="svg2" />
  <polyline
     id="polyline6"
     style="fill:none;stroke:#000000;stroke-width:7;stroke-linecap:butt;stroke-linejoin:miter"
     points="1981,3300 1500,3300 1500,2819 " />
  <polygon
     id="polygon8"
     style="fill:#000000;stroke:#000000;stroke-width:7"
     points="1530,2821 1500,2701 1470,2821 1530,2821 " />
  <polygon
     id="polygon10"
     style="fill:#000000;stroke:#000000;stroke-width:7"
     points="1963,3341 2084,3315 1964,3282 1963,3341 " />
  <polyline
     id="polyline12"
     style="fill:none;stroke:#000000;stroke-width:7;stroke-linecap:butt;stroke-linejoin:miter"
     points="2304,2657 2550,3150 3043,2903 " />
  <polygon
     id="polygon14"
     style="fill:#000000;stroke:#000000;stroke-width:7"
     points="3055,2930 3149,2850 3028,2876 3055,2930 " />
  <polygon
     id="polygon16"
     style="fill:#000000;stroke:#000000;stroke-width:7"
     points="2327,2662 2245,2570 2274,2690 2327,2662 " />
  <polyline
     id="polyline18"
     style="fill:none;stroke:#000000;stroke-width:7;stroke-linecap:butt;stroke-linejoin:miter"
     points="3697,1757 3450,2250 3943,2496 " />
  <polygon
     id="polygon20"
     style="fill:#000000;stroke:#000000;stroke-width:7"
     points="3928,2522 4049,2549 3955,2468 3928,2522 " />
  <polygon
     id="polygon22"
     style="fill:#000000;stroke:#000000;stroke-width:7"
     points="3705,1780 3730,1659 3651,1754 3705,1780 " />
  <polyline
     id="polyline24"
     style="fill:none;stroke:#000000;stroke-width:7;stroke-linecap:butt;stroke-linejoin:miter"
     points="2550,3150 3438,2261 " />
  <polyline
     id="polyline26"
     style="fill:none;stroke:#000000;stroke-width:7"
     points="3352 2410 3448 2251 3288 2346 " />
  <polyline
     id="polyline28"
     style="fill:none;stroke:#000000;stroke-width:7;stroke-linecap:butt;stroke-linejoin:miter"
     points="1500,3300 2534,3151 " />
  <polyline
     id="polyline30"
     style="fill:none;stroke:#000000;stroke-width:7"
     points="2376 3219 2548 3149 2363 3130 " />
  <polygon
     id="polygon32"
     style="fill:none;stroke:#000000;stroke-width:7;stroke-linecap:butt;stroke-linejoin:bevel"
     points="3975,1575 4012,1598 4049,1623 4085,1650 4120,1679 4153,1708 4185,1737 4215,1766 4244,1794 4271,1822 4296,1848 4320,1874 4343,1899 4365,1924 4386,1947 4406,1970 4425,1993 4444,2015 4463,2038 4480,2060 4498,2082 4515,2105 4532,2129 4549,2153 4565,2178 4581,2205 4596,2232 4611,2261 4624,2291 4637,2322 4647,2354 4656,2387 4662,2420 4665,2454 4665,2487 4660,2520 4650,2550 4634,2579 4613,2605 4588,2628 4560,2648 4530,2666 4499,2680 4467,2692 4435,2703 4403,2711 4372,2718 4341,2723 4310,2728 4280,2731 4251,2734 4221,2736 4192,2737 4162,2738 4133,2738 4103,2738 4072,2737 4041,2736 4008,2734 3975,2732 3939,2730 3903,2726 3865,2722 3825,2716 3783,2709 3741,2701 3697,2690 3653,2678 3609,2663 3566,2646 3525,2625 3485,2600 3448,2573 3416,2544 3387,2515 3363,2486 3342,2458 3324,2431 3310,2405 3298,2381 3288,2357 3281,2335 3275,2315 3270,2295 3267,2275 3264,2256 3263,2238 3261,2219 3260,2199 3260,2180 3259,2159 3259,2137 3259,2114 3259,2089 3259,2063 3260,2034 3261,2004 3263,1972 3266,1939 3271,1904 3278,1869 3288,1834 3300,1800 3316,1768 3334,1739 3353,1713 3373,1689 3394,1668 3413,1648 3432,1631 3450,1616 3467,1602 3483,1590 3498,1579 3512,1569 3525,1560 3538,1552 3550,1545 3563,1538 3575,1531 3588,1525 3602,1519 3618,1515 3634,1510 3653,1507 3674,1504 3697,1503 3722,1503 3751,1504 3782,1508 3816,1515 3853,1524 3892,1537 3933,1554 3975,1575 " />
  <text
     xml:space="preserve"
     style="font-size:149.15475464px;font-style:normal;font-variant:normal;font-weight:normal;font-stretch:normal;text-align:start;line-height:100%;writing-mode:lr-tb;text-anchor:start;fill:#000000;fill-opacity:1;stroke:none;stroke-width:1px;stroke-linecap:butt;stroke-linejoin:miter;stroke-opacity:1;font-family:Arial;-inkscape-font-specification:Arial"
     x="3816.5146"
     y="2330.6648"
     id="text2407"
     sodipodi:linespacing="100%"><tspan
       sodipodi:role="line"
       id="tspan2478"
       x="3816.5146"
       y="2330.6648">RigidBody</tspan></text>
  <text
     xml:space="preserve"
     style="font-size:149.15474902px;font-style:normal;font-variant:normal;font-weight:normal;font-stretch:normal;text-align:start;line-height:125%;writing-mode:lr;text-anchor:start;fill:#000000;fill-opacity:1;stroke:none;stroke-width:1px;stroke-linecap:butt;stroke-linejoin:miter;stroke-opacity:1;font-family:Arial;-inkscape-font-specification:Arial"
     x="4084.6367"
     y="2629.9641"
     id="text2411"
     sodipodi:linespacing="125%"><tspan
       sodipodi:role="line"
       id="tspan2413"
       x="4084.6367"
       y="2629.9641">x</tspan></text>
  <text
     xml:space="preserve"
     style="font-size:149.15474902px;font-style:normal;font-variant:normal;font-weight:normal;font-stretch:normal;text-align:start;line-height:125%;writing-mode:lr;text-anchor:start;fill:#000000;fill-opacity:1;stroke:none;stroke-width:1px;stroke-linecap:butt;stroke-linejoin:miter;stroke-opacity:1;font-family:Arial;-inkscape-font-specification:Arial"
     x="3779.1021"
     y="1738.3018"
     id="text2415"
     sodipodi:linespacing="125%"><tspan
       sodipodi:role="line"
       id="tspan2417"
       x="3779.1021"
       y="1738.3018">y</tspan></text>
  <text
     xml:space="preserve"
     style="font-size:149.15474902px;font-style:normal;font-variant:normal;font-weight:normal;font-stretch:normal;text-align:start;line-height:125%;writing-mode:lr;text-anchor:start;fill:#000000;fill-opacity:1;stroke:none;stroke-width:1px;stroke-linecap:butt;stroke-linejoin:miter;stroke-opacity:1;font-family:Arial;-inkscape-font-specification:Arial"
     x="1322.3541"
     y="3421.8604"
     id="text2419"
     sodipodi:linespacing="125%"><tspan
       sodipodi:role="line"
       id="tspan2421"
       x="1322.3541"
       y="3421.8604">W</tspan></text>
  <text
     xml:space="preserve"
     style="font-size:149.15474902px;font-style:normal;font-variant:normal;font-weight:normal;font-stretch:normal;text-align:start;line-height:125%;writing-mode:lr;text-anchor:start;fill:#000000;fill-opacity:1;stroke:none;stroke-width:1px;stroke-linecap:butt;stroke-linejoin:miter;stroke-opacity:1;font-family:Arial;-inkscape-font-specification:Arial"
     x="2532.022"
     y="3315.8584"
     id="text2423"
     sodipodi:linespacing="125%"><tspan
       sodipodi:role="line"
       id="tspan2425"
       x="2532.022"
       y="3315.8584">R</tspan></text>
  <text
     xml:space="preserve"
     style="font-size:149.15475464px;font-style:normal;font-variant:normal;font-weight:normal;font-stretch:normal;text-align:start;line-height:125%;writing-mode:lr-tb;text-anchor:start;fill:#000000;fill-opacity:1;stroke:none;stroke-width:1px;stroke-linecap:butt;stroke-linejoin:miter;stroke-opacity:1;font-family:Arial;-inkscape-font-specification:Arial"
     x="3560.8633"
     y="2249.6047"
     id="text2427"
     sodipodi:linespacing="125%"><tspan
       sodipodi:role="line"
       id="tspan2429"
       x="3560.8633"
       y="2249.6047">L</tspan></text>
  <text
     xml:space="preserve"
     style="font-size:149.15474902px;font-style:normal;font-variant:normal;font-weight:normal;font-stretch:normal;text-align:start;line-height:125%;writing-mode:lr;text-anchor:start;fill:#000000;fill-opacity:1;stroke:none;stroke-width:1px;stroke-linecap:butt;stroke-linejoin:miter;stroke-opacity:1;font-family:Arial;-inkscape-font-specification:Arial"
     x="3174.0725"
     y="2976.2834"
     id="text2458"
     sodipodi:linespacing="125%"><tspan
       sodipodi:role="line"
       id="tspan2460"
       x="3174.0725"
       y="2976.2834">x</tspan></text>
  <text
     xml:space="preserve"
     style="font-size:149.15474902px;font-style:normal;font-variant:normal;font-weight:normal;font-stretch:normal;text-align:start;line-height:125%;writing-mode:lr;text-anchor:start;fill:#000000;fill-opacity:1;stroke:none;stroke-width:1px;stroke-linecap:butt;stroke-linejoin:miter;stroke-opacity:1;font-family:Arial;-inkscape-font-specification:Arial"
     x="2307.0605"
     y="2542.9988"
     id="text2462"
     sodipodi:linespacing="125%"><tspan
       sodipodi:role="line"
       id="tspan2464"
       x="2307.0605"
       y="2542.9988">y</tspan></text>
  <text
     xml:space="preserve"
     style="font-size:149.15474902px;font-style:normal;font-variant:normal;font-weight:normal;font-stretch:normal;text-align:start;line-height:125%;writing-mode:lr;text-anchor:start;fill:#000000;fill-opacity:1;stroke:none;stroke-width:1px;stroke-linecap:butt;stroke-linejoin:miter;stroke-opacity:1;font-family:Arial;-inkscape-font-specification:Arial"
     x="2026.7589"
     y="3462.6448"
     id="text2466"
     sodipodi:linespacing="125%"><tspan
       sodipodi:role="line"
       id="tspan2468"
       x="2026.7589"
       y="3462.6448">x</tspan></text>
  <text
     xml:space="preserve"
     style="font-size:149.15474902px;font-style:normal;font-variant:normal;font-weight:normal;font-stretch:normal;text-align:start;line-height:125%;writing-mode:lr;text-anchor:start;fill:#000000;fill-opacity:1;stroke:none;stroke-width:1px;stroke-linecap:butt;stroke-linejoin:miter;stroke-opacity:1;font-family:Arial;-inkscape-font-specification:Arial"
     x="1359.2794"
     y="2717.5901"
     id="text2470"
     sodipodi:linespacing="125%"><tspan
       sodipodi:role="line"
       id="tspan2472"
       x="1359.2794"
       y="2717.5901">y</tspan></text>
  <text
     xml:space="preserve"
     style="font-size:149.15475464px;font-style:normal;font-variant:normal;font-weight:normal;font-stretch:normal;text-align:start;line-height:100%;writing-mode:lr-tb;text-anchor:start;fill:#000000;fill-opacity:1;stroke:none;stroke-width:1px;stroke-linecap:butt;stroke-linejoin:miter;stroke-opacity:1;font-family:Arial;-inkscape-font-specification:Arial"
     x="1914.7173"
     y="3122.561"
     id="text2474"
     sodipodi:linespacing="100%"><tspan
       sodipodi:role="line"
       id="tspan2476"
       x="1914.7173"
       y="3122.561">r</tspan></text>
  <text
     xml:space="preserve"
     style="font-size:108.47618866px;font-style:normal;font-variant:normal;font-weight:normal;font-stretch:normal;text-align:start;line-height:100%;writing-mode:lr-tb;text-anchor:start;fill:#000000;fill-opacity:1;stroke:none;stroke-width:1px;stroke-linecap:butt;stroke-linejoin:miter;stroke-opacity:1;font-family:Arial;-inkscape-font-specification:Arial"
     x="2850.0273"
     y="2704.7888"
     id="text2480"
     sodipodi:linespacing="100%"><tspan
       sodipodi:role="line"
       id="tspan2482"
       x="2850.0273"
       y="2704.7888">B</tspan></text>
  <text
     xml:space="preserve"
     style="font-size:108.47618866px;font-style:normal;font-variant:normal;font-weight:normal;font-stretch:normal;text-align:start;line-height:125%;writing-mode:lr-tb;text-anchor:start;fill:#000000;fill-opacity:1;stroke:none;stroke-width:1px;stroke-linecap:butt;stroke-linejoin:miter;stroke-opacity:1;font-family:Arial;-inkscape-font-specification:Arial"
     x="1970.8356"
     y="3178.6794"
     id="text2484"
     sodipodi:linespacing="125%"><tspan
       sodipodi:role="line"
       id="tspan2486"
       x="1970.8356"
       y="3178.6794">P</tspan></text>
  <text
     xml:space="preserve"
     style="font-size:149.15475464px;font-style:normal;font-variant:normal;font-weight:normal;font-stretch:normal;text-align:start;line-height:100%;writing-mode:lr-tb;text-anchor:start;fill:#000000;fill-opacity:1;stroke:none;stroke-width:1px;stroke-linecap:butt;stroke-linejoin:miter;stroke-opacity:1;font-family:Arial;-inkscape-font-specification:Arial"
     x="2794.3882"
     y="2650.8044"
     id="text2488"
     sodipodi:linespacing="100%"><tspan
       sodipodi:role="line"
       id="tspan2490"
       x="2794.3882"
       y="2650.8044">r</tspan></text>
</svg>
