<?xml version="1.0" encoding="UTF-8" standalone="no"?>
<!-- Generator: Adobe Illustrator 19.0.0, SVG Export Plug-In . SVG Version: 6.00 Build 0)  -->

<svg
   xmlns:dc="http://purl.org/dc/elements/1.1/"
   xmlns:cc="http://creativecommons.org/ns#"
   xmlns:rdf="http://www.w3.org/1999/02/22-rdf-syntax-ns#"
   xmlns:svg="http://www.w3.org/2000/svg"
   xmlns="http://www.w3.org/2000/svg"
   xmlns:sodipodi="http://sodipodi.sourceforge.net/DTD/sodipodi-0.dtd"
   xmlns:inkscape="http://www.inkscape.org/namespaces/inkscape"
   version="1.1"
   id="Layer_1"
   x="0px"
   y="0px"
   viewBox="0 0 16 16"
   xml:space="preserve"
   sodipodi:docname="angle.svg"
   width="16"
   height="16"
   inkscape:version="0.92.4 (5da689c313, 2019-01-14)"><metadata
   id="metadata43"><rdf:RDF><cc:Work
       rdf:about=""><dc:format>image/svg+xml</dc:format><dc:type
         rdf:resource="http://purl.org/dc/dcmitype/StillImage" /><dc:title></dc:title></cc:Work></rdf:RDF></metadata><defs
   id="defs41" /><sodipodi:namedview
   pagecolor="#ffffff"
   bordercolor="#666666"
   borderopacity="1"
   objecttolerance="10"
   gridtolerance="10"
   guidetolerance="10"
   inkscape:pageopacity="0"
   inkscape:pageshadow="2"
   inkscape:window-width="876"
   inkscape:window-height="480"
   id="namedview39"
   showgrid="false"
   inkscape:zoom="14.75"
   inkscape:cx="20.949153"
   inkscape:cy="21.728814"
   inkscape:window-x="133"
   inkscape:window-y="121"
   inkscape:window-maximized="0"
   inkscape:current-layer="Layer_1" />
<g
   id="g6"
   transform="matrix(0.02963777,0,0,0.02963777,0.54236693,0.23427898)">
	<g
   id="g4">
		<path
   d="M 495.304,425.738 H 255.417 C 251.841,373.707 231.589,324.896 197.232,285.508 L 401.371,81.37 c 6.52,-6.52 6.52,-17.091 0,-23.611 -6.519,-6.52 -17.091,-6.52 -23.611,0 L 4.89,430.629 c -3.282,3.282 -4.984,7.702 -4.886,12.172 0.018,0.813 0.095,1.627 0.233,2.436 0.207,1.214 0.55,2.416 1.034,3.586 2.584,6.239 8.672,10.307 15.425,10.307 h 222.609 256 c 9.22,0 16.696,-7.475 16.696,-16.696 0,-9.221 -7.476,-16.696 -16.697,-16.696 z m -438.302,0 116.562,-116.561 c 28.136,32.988 44.927,73.446 48.38,116.561 z"
   id="path2"
   inkscape:connector-curvature="0" />
	</g>
</g>
<g
   id="g8"
   transform="translate(0,-496)">
</g>
<g
   id="g10"
   transform="translate(0,-496)">
</g>
<g
   id="g12"
   transform="translate(0,-496)">
</g>
<g
   id="g14"
   transform="translate(0,-496)">
</g>
<g
   id="g16"
   transform="translate(0,-496)">
</g>
<g
   id="g18"
   transform="translate(0,-496)">
</g>
<g
   id="g20"
   transform="translate(0,-496)">
</g>
<g
   id="g22"
   transform="translate(0,-496)">
</g>
<g
   id="g24"
   transform="translate(0,-496)">
</g>
<g
   id="g26"
   transform="translate(0,-496)">
</g>
<g
   id="g28"
   transform="translate(0,-496)">
</g>
<g
   id="g30"
   transform="translate(0,-496)">
</g>
<g
   id="g32"
   transform="translate(0,-496)">
</g>
<g
   id="g34"
   transform="translate(0,-496)">
</g>
<g
   id="g36"
   transform="translate(0,-496)">
</g>
</svg>