<?xml version="1.0" encoding="UTF-8" standalone="no"?>
<svg
   width="16"
   height="16"
   viewBox="0 0 16 16"
   version="1.1"
   id="svg9"
   sodipodi:docname="ivscreenannotation.svg"
   inkscape:version="1.2.2 (b0a8486541, 2022-12-01)"
   xmlns:inkscape="http://www.inkscape.org/namespaces/inkscape"
   xmlns:sodipodi="http://sodipodi.sourceforge.net/DTD/sodipodi-0.dtd"
   xmlns="http://www.w3.org/2000/svg"
   xmlns:svg="http://www.w3.org/2000/svg"
   xmlns:rdf="http://www.w3.org/1999/02/22-rdf-syntax-ns#"
   xmlns:cc="http://creativecommons.org/ns#"
   xmlns:dc="http://purl.org/dc/elements/1.1/">
  <metadata
     id="metadata15">
    <rdf:RDF>
      <cc:Work
         rdf:about="">
        <dc:format>image/svg+xml</dc:format>
        <dc:type
           rdf:resource="http://purl.org/dc/dcmitype/StillImage" />
        <dc:title>ic_fluent_top_speed_24_filled</dc:title>
      </cc:Work>
    </rdf:RDF>
  </metadata>
  <defs
     id="defs13" />
  <sodipodi:namedview
     pagecolor="#ffffff"
     bordercolor="#666666"
     borderopacity="1"
     objecttolerance="10"
     gridtolerance="10"
     guidetolerance="10"
     inkscape:pageopacity="0"
     inkscape:pageshadow="2"
     inkscape:window-width="1814"
     inkscape:window-height="969"
     id="namedview11"
     showgrid="false"
     inkscape:zoom="27.812867"
     inkscape:cx="6.5077794"
     inkscape:cy="8.1257356"
     inkscape:window-x="0"
     inkscape:window-y="0"
     inkscape:window-maximized="1"
     inkscape:current-layer="svg9"
     inkscape:showpageshadow="2"
     inkscape:pagecheckerboard="0"
     inkscape:deskcolor="#d1d1d1" />
  <!-- Uploaded to SVGRepo https://www.svgrepo.com -->
  <title
     id="title2">ic_fluent_top_speed_24_filled</title>
  <desc
     id="desc4">Created with Sketch.</desc>
  <rect
     style="fill:#000000;fill-opacity:1;fill-rule:nonzero;stroke:#818181;stroke-width:1.36187;stroke-linecap:butt;stroke-linejoin:round;stroke-miterlimit:4;stroke-dasharray:none;stroke-dashoffset:0;stroke-opacity:1"
     id="rect2393"
     width="14.558634"
     height="14.559784"
     x="0.73484486"
     y="0.73660022" />
  <path
     d="M 7.6653998,8.1028279 11.115415,3.429147 c 0.11422,-0.1547245 0.325478,-0.2007216 0.49368,-0.1074862 0.15139,0.083917 0.225637,0.2571703 0.187471,0.4213855 l -0.01693,0.054269 -2.1339796,5.4032319 C 9.4140646,9.7869301 8.7509678,10.074546 8.1645869,9.8429587 8.1185614,9.8247802 8.0737659,9.8036268 8.0304866,9.7796415 7.4789339,9.473907 7.2796543,8.7789414 7.585386,8.2273884 l 0.037988,-0.063575 v 0 l 0.042035,-0.060986 3.450016,-4.6736802 z m 4.7201852,-4.415052 c 0.416067,0.3370813 0.792624,0.737155 1.115061,1.1976445 0.289215,0.4130403 0.56769,0.9131704 0.727844,1.3224608 0.08322,0.2126967 -0.02173,0.4525911 -0.234425,0.5358173 -0.212697,0.083226 -0.452591,-0.021726 -0.535817,-0.234425 C 13.404596,6.3721697 13.333015,6.219113 13.250214,6.0616353 L 12.120103,6.7141038 C 11.922302,6.8283093 11.669377,6.7605297 11.555176,6.562732 11.450496,6.3814148 11.49871,6.1537777 11.659841,6.0291328 l 0.04671,-0.031337 1.11288,-0.6434236 -0.127064,-0.1729825 C 12.513777,4.9483982 12.318397,4.735076 12.109133,4.5419444 L 12.318756,4.010235 c 0.0209,-0.052897 0.03678,-0.1066523 0.04788,-0.1607127 l 0.01301,-0.081251 z M 10.936176,2.8268893 c -0.08218,0.047731 -0.157932,0.108433 -0.224187,0.181207 l -0.06298,0.076765 -0.298289,0.4041461 C 9.9637653,3.3544996 9.561921,3.26747 9.1547432,3.2296038 l -1.33e-4,1.473824 c 0,0.2284003 -0.1851559,0.413555 -0.4135554,0.413555 -0.2093671,0 -0.3823959,-0.1555813 -0.4097794,-0.357438 L 8.3275567,4.7034275 8.3273436,3.2205414 C 7.4469278,3.2831449 6.5716105,3.5776537 5.7959903,4.1207486 5.3460708,4.435786 4.9537904,4.8498424 4.6277063,5.3364364 L 5.7758538,5.9992735 C 5.973653,6.113479 6.0414254,6.3664001 5.9272242,6.5642008 5.8225443,6.7455179 5.6012889,6.8175739 5.4127847,6.7403604 L 5.362297,6.7155742 4.2185733,6.0555481 C 4.1481192,6.2023433 4.0826996,6.3534649 4.0224803,6.5084024 3.9397404,6.721288 3.7000805,6.8267876 3.487195,6.7440432 3.2743108,6.6613033 3.1688113,6.4216434 3.2515555,6.2087594 3.6962374,5.0646793 4.3980882,4.0898577 5.3215792,3.4432226 7.0264729,2.2494424 9.1452262,2.0875873 10.936232,2.8268918 Z"
     id="🎨-Color"
     inkscape:connector-curvature="0"
     style="fill:#b2b2b2;fill-opacity:1;fill-rule:nonzero;stroke:none;stroke-width:0.551407" />
</svg>
