<?xml version="1.0" encoding="UTF-8" standalone="no"?>
<!-- Generator: Adobe Illustrator 18.0.0, SVG Export Plug-In . SVG Version: 6.00 Build 0)  -->

<svg
   xmlns:dc="http://purl.org/dc/elements/1.1/"
   xmlns:cc="http://creativecommons.org/ns#"
   xmlns:rdf="http://www.w3.org/1999/02/22-rdf-syntax-ns#"
   xmlns:svg="http://www.w3.org/2000/svg"
   xmlns="http://www.w3.org/2000/svg"
   xmlns:sodipodi="http://sodipodi.sourceforge.net/DTD/sodipodi-0.dtd"
   xmlns:inkscape="http://www.inkscape.org/namespaces/inkscape"
   version="1.1"
   id="Capa_1"
   x="0px"
   y="0px"
   viewBox="0 0 15.999999 15.999999"
   xml:space="preserve"
   sodipodi:docname="mouse.svg"
   width="16"
   height="16"
   inkscape:version="0.92.4 (5da689c313, 2019-01-14)"><metadata
   id="metadata41"><rdf:RDF><cc:Work
       rdf:about=""><dc:format>image/svg+xml</dc:format><dc:type
         rdf:resource="http://purl.org/dc/dcmitype/StillImage" /><dc:title></dc:title></cc:Work></rdf:RDF></metadata><defs
   id="defs39" /><sodipodi:namedview
   pagecolor="#ffffff"
   bordercolor="#666666"
   borderopacity="1"
   objecttolerance="10"
   gridtolerance="10"
   guidetolerance="10"
   inkscape:pageopacity="0"
   inkscape:pageshadow="2"
   inkscape:window-width="1814"
   inkscape:window-height="963"
   id="namedview37"
   showgrid="false"
   inkscape:zoom="16.279721"
   inkscape:cx="31.343956"
   inkscape:cy="7.3478077"
   inkscape:window-x="0"
   inkscape:window-y="0"
   inkscape:window-maximized="1"
   inkscape:current-layer="Capa_1" />
<g
   id="g4"
   transform="matrix(0.06732787,0,0,0.06732787,0.08380649,0.19935009)">
	<path
   d="M 115.973,0 C 73.102,0 38.223,34.879 38.223,77.75 v 89.913 c 0,35.445 28.837,64.282 64.282,64.282 h 26.936 c 35.445,0 64.282,-28.837 64.282,-64.282 V 77.75 C 193.723,34.879 158.844,0 115.973,0 Z m -13.468,213.945 c -25.521,0 -46.282,-20.762 -46.282,-46.282 v -30.496 h 119.5 v 30.496 c 0,25.521 -20.762,46.282 -46.282,46.282 z M 112.973,50.771 c 0,-1.654 1.346,-3 3,-3 1.654,0 3,1.346 3,3 v 31.917 c 0,1.654 -1.346,3 -3,3 -1.654,0 -3,-1.346 -3,-3 z m 62.75,68.396 h -50.75 v -17.535 c 7.082,-3.379 12,-10.589 12,-18.945 V 50.771 c 0,-8.355 -4.918,-15.566 -12,-18.945 V 18.679 c 28.691,4.353 50.75,29.184 50.75,59.071 z M 106.973,18.679 v 13.147 c -7.082,3.379 -12,10.589 -12,18.945 v 31.917 c 0,8.355 4.918,15.566 12,18.945 v 17.535 H 56.223 V 77.75 c 0,-29.888 22.058,-54.718 50.75,-59.071 z"
   id="path2"
   inkscape:connector-curvature="0" />
</g>
<g
   id="g6"
   transform="translate(0,-215.94501)">
</g>
<g
   id="g8"
   transform="translate(0,-215.94501)">
</g>
<g
   id="g10"
   transform="translate(0,-215.94501)">
</g>
<g
   id="g12"
   transform="translate(0,-215.94501)">
</g>
<g
   id="g14"
   transform="translate(0,-215.94501)">
</g>
<g
   id="g16"
   transform="translate(0,-215.94501)">
</g>
<g
   id="g18"
   transform="translate(0,-215.94501)">
</g>
<g
   id="g20"
   transform="translate(0,-215.94501)">
</g>
<g
   id="g22"
   transform="translate(0,-215.94501)">
</g>
<g
   id="g24"
   transform="translate(0,-215.94501)">
</g>
<g
   id="g26"
   transform="translate(0,-215.94501)">
</g>
<g
   id="g28"
   transform="translate(0,-215.94501)">
</g>
<g
   id="g30"
   transform="translate(0,-215.94501)">
</g>
<g
   id="g32"
   transform="translate(0,-215.94501)">
</g>
<g
   id="g34"
   transform="translate(0,-215.94501)">
</g>
</svg>