<?xml version="1.0" encoding="UTF-8" standalone="no"?>
<svg
   xmlns:dc="http://purl.org/dc/elements/1.1/"
   xmlns:cc="http://creativecommons.org/ns#"
   xmlns:rdf="http://www.w3.org/1999/02/22-rdf-syntax-ns#"
   xmlns:svg="http://www.w3.org/2000/svg"
   xmlns="http://www.w3.org/2000/svg"
   xmlns:sodipodi="http://sodipodi.sourceforge.net/DTD/sodipodi-0.dtd"
   xmlns:inkscape="http://www.inkscape.org/namespaces/inkscape"
   viewBox="0 0 16 16"
   width="16"
   height="16"
   version="1.1"
   id="svg4"
   sodipodi:docname="icons8-settings.svg"
   style="fill:#000000"
   inkscape:version="0.92.4 (5da689c313, 2019-01-14)">
  <metadata
     id="metadata10">
    <rdf:RDF>
      <cc:Work
         rdf:about="">
        <dc:format>image/svg+xml</dc:format>
        <dc:type
           rdf:resource="http://purl.org/dc/dcmitype/StillImage" />
        <dc:title></dc:title>
      </cc:Work>
    </rdf:RDF>
  </metadata>
  <defs
     id="defs8" />
  <sodipodi:namedview
     pagecolor="#ffffff"
     bordercolor="#666666"
     borderopacity="1"
     objecttolerance="10"
     gridtolerance="10"
     guidetolerance="10"
     inkscape:pageopacity="0"
     inkscape:pageshadow="2"
     inkscape:window-width="1814"
     inkscape:window-height="963"
     id="namedview6"
     showgrid="false"
     inkscape:zoom="9.8333333"
     inkscape:cx="13.220339"
     inkscape:cy="12"
     inkscape:window-x="0"
     inkscape:window-y="0"
     inkscape:window-maximized="1"
     inkscape:current-layer="svg4" />
  <path
     d="M 6.3751026,0.61016947 6.0070113,2.5048861 C 5.3881872,2.7382616 4.8199252,3.0653886 4.322004,3.4742419 L 2.5020789,2.8465803 0.74814619,5.8822332 2.205846,7.149288 C 2.149809,7.4933458 2.120789,7.8121819 2.120789,8.1186441 c 0,0.3069224 0.029889,0.6251751 0.085057,0.969356 v 0.0015 L 0.74814619,10.356557 2.5020789,13.390743 4.3205375,12.764548 c 0.4979678,0.409076 1.0675152,0.734379 1.6864738,0.967889 l 0.3680913,1.894682 h 3.5049319 l 0.3680915,-1.894717 c 0.619229,-0.233528 1.186853,-0.560126 1.685007,-0.969355 l 1.819926,0.627661 1.752466,-3.034186 -1.456233,-1.2685219 c 0.05604,-0.3440578 0.08506,-0.6628939 0.08506,-0.969356 0,-0.3060027 -0.02919,-0.6244243 -0.08506,-0.967889 v -0.0015 L 15.506992,5.8807683 13.753059,2.846582 11.9346,3.4727771 C 11.436633,3.0636997 10.867085,2.738396 10.248126,2.5048861 L 9.8800345,0.61016947 Z m 1.237725,1.50169493 h 1.0294821 l 0.2918334,1.5016949 0.7831107,0.2962328 c 0.4720312,0.1779049 0.8961242,0.422144 1.2641222,0.7244505 l 0.648192,0.5308725 1.443036,-0.4956765 0.51474,0.8901648 -1.152668,1.0030853 0.131985,0.8256391 v 0.0015 c 0.04591,0.2814859 0.06599,0.5176522 0.06599,0.7288146 0,0.2111623 -0.02008,0.4472933 -0.06599,0.7288498 l -0.133451,0.8256387 1.152668,1.0030851 -0.514742,0.891632 -1.441568,-0.497143 -0.649659,0.532339 c -0.367997,0.302306 -0.790624,0.546546 -1.2626552,0.724451 h -0.0015 L 8.932676,12.623729 8.6408426,14.125424 H 7.6128276 L 7.3209942,12.623729 6.537884,12.327497 C 6.0658518,12.149592 5.6417593,11.905352 5.2737619,11.603046 L 4.6255693,11.072173 3.1825344,11.56785 2.6677932,10.677685 3.8219279,9.6731326 3.6884765,8.8504268 v -0.0015 C 3.6432214,8.5662152 3.6224837,8.3293867 3.6224837,8.1186441 c 0,-0.2111624 0.020079,-0.4472934 0.065993,-0.7288499 L 3.8219279,6.5641552 2.6677932,5.5610699 3.1825344,4.6694386 4.6255693,5.1665817 5.2737619,4.6342426 C 5.6417593,4.3319361 6.0658518,4.087697 6.537884,3.9097921 L 7.3209942,3.6135593 Z m 0.5147409,3.0033898 c -1.6492536,0 -3.0033895,1.354136 -3.0033895,3.0033899 0,1.6492537 1.3541359,3.0033899 3.0033895,3.0033899 1.6492537,0 3.0033905,-1.3541362 3.0033905,-3.0033899 0,-1.6492539 -1.3541368,-3.0033899 -3.0033905,-3.0033899 z m 0,1.5016949 c 0.8345497,0 1.5016949,0.6671453 1.5016949,1.501695 0,0.8345496 -0.6671452,1.5016949 -1.5016949,1.5016949 -0.8345494,0 -1.5016946,-0.6671453 -1.5016946,-1.5016949 0,-0.8345497 0.6671452,-1.501695 1.5016946,-1.501695 z"
     id="path2"
     inkscape:connector-curvature="0"
     style="stroke-width:0.75084746" />
</svg>
