<?xml version="1.0" encoding="UTF-8" standalone="no"?>
<!-- Generator: Adobe Illustrator 19.0.0, SVG Export Plug-In . SVG Version: 6.00 Build 0)  -->

<svg
   xmlns:dc="http://purl.org/dc/elements/1.1/"
   xmlns:cc="http://creativecommons.org/ns#"
   xmlns:rdf="http://www.w3.org/1999/02/22-rdf-syntax-ns#"
   xmlns:svg="http://www.w3.org/2000/svg"
   xmlns="http://www.w3.org/2000/svg"
   xmlns:sodipodi="http://sodipodi.sourceforge.net/DTD/sodipodi-0.dtd"
   xmlns:inkscape="http://www.inkscape.org/namespaces/inkscape"
   version="1.1"
   id="Layer_1"
   x="0px"
   y="0px"
   viewBox="0 0 16 16"
   xml:space="preserve"
   sodipodi:docname="time.svg"
   width="16"
   height="16"
   inkscape:version="0.92.4 (5da689c313, 2019-01-14)"><metadata
   id="metadata47"><rdf:RDF><cc:Work
       rdf:about=""><dc:format>image/svg+xml</dc:format><dc:type
         rdf:resource="http://purl.org/dc/dcmitype/StillImage" /><dc:title></dc:title></cc:Work></rdf:RDF></metadata><defs
   id="defs45" /><sodipodi:namedview
   pagecolor="#ffffff"
   bordercolor="#666666"
   borderopacity="1"
   objecttolerance="10"
   gridtolerance="10"
   guidetolerance="10"
   inkscape:pageopacity="0"
   inkscape:pageshadow="2"
   inkscape:window-width="1814"
   inkscape:window-height="963"
   id="namedview43"
   showgrid="false"
   inkscape:zoom="14.75"
   inkscape:cx="24.358664"
   inkscape:cy="8.6779658"
   inkscape:window-x="0"
   inkscape:window-y="0"
   inkscape:window-maximized="1"
   inkscape:current-layer="Layer_1" />
<g
   id="g10"
   transform="matrix(0.03085275,0,0,0.03085275,0.38504804,0.13559324)">
	<g
   id="g8">
		<g
   id="g6">
			<path
   d="M 276.193,58.507 V 40.389 h 14.578 c 11.153,0 20.194,-9.042 20.194,-20.194 C 310.965,9.043 301.923,0 290.771,0 h -69.544 c -11.153,0 -20.194,9.042 -20.194,20.194 0,11.152 9.042,20.194 20.194,20.194 h 14.578 V 58.506 C 119.952,68.76 28.799,166.327 28.799,284.799 28.799,410.078 130.721,512 256,512 381.279,512 483.201,410.078 483.201,284.799 483.2,166.327 392.046,68.76 276.193,58.507 Z m 0,412.009 v -20.124 c 0,-11.153 -9.042,-20.194 -20.194,-20.194 -11.153,0 -20.194,9.042 -20.194,20.194 v 20.124 C 148.895,461.131 79.668,391.902 70.283,304.994 h 20.124 c 11.153,0 20.194,-9.042 20.194,-20.194 0,-11.152 -9.042,-20.194 -20.194,-20.194 H 70.282 c 9.385,-86.91 78.614,-156.137 165.522,-165.523 v 20.124 c 0,11.153 9.042,20.194 20.194,20.194 11.153,0 20.194,-9.042 20.194,-20.194 V 99.081 c 86.91,9.385 156.137,78.614 165.522,165.523 H 421.59 c -11.153,0 -20.194,9.042 -20.194,20.194 0,11.152 9.042,20.194 20.194,20.194 h 20.126 c -9.385,86.911 -78.613,156.14 -165.523,165.524 z"
   id="path2"
   inkscape:connector-curvature="0" />
			<path
   d="m 317.248,194.99 -58.179,58.18 c -1.011,-0.097 -2.034,-0.151 -3.071,-0.151 -17.552,0 -31.779,14.229 -31.779,31.779 0,17.552 14.228,31.779 31.779,31.779 17.551,0 31.779,-14.229 31.779,-31.779 0,-1.037 -0.054,-2.06 -0.151,-3.07 l 58.178,-58.18 c 7.887,-7.885 7.887,-20.672 0,-28.559 -7.882,-7.886 -20.669,-7.886 -28.556,0.001 z"
   id="path4"
   inkscape:connector-curvature="0" />
		</g>
	</g>
</g>
<g
   id="g12"
   transform="translate(0,-496)">
</g>
<g
   id="g14"
   transform="translate(0,-496)">
</g>
<g
   id="g16"
   transform="translate(0,-496)">
</g>
<g
   id="g18"
   transform="translate(0,-496)">
</g>
<g
   id="g20"
   transform="translate(0,-496)">
</g>
<g
   id="g22"
   transform="translate(0,-496)">
</g>
<g
   id="g24"
   transform="translate(0,-496)">
</g>
<g
   id="g26"
   transform="translate(0,-496)">
</g>
<g
   id="g28"
   transform="translate(0,-496)">
</g>
<g
   id="g30"
   transform="translate(0,-496)">
</g>
<g
   id="g32"
   transform="translate(0,-496)">
</g>
<g
   id="g34"
   transform="translate(0,-496)">
</g>
<g
   id="g36"
   transform="translate(0,-496)">
</g>
<g
   id="g38"
   transform="translate(0,-496)">
</g>
<g
   id="g40"
   transform="translate(0,-496)">
</g>
</svg>