<?xml version="1.0" encoding="UTF-8" standalone="no"?>
<svg
   xmlns:dc="http://purl.org/dc/elements/1.1/"
   xmlns:cc="http://creativecommons.org/ns#"
   xmlns:rdf="http://www.w3.org/1999/02/22-rdf-syntax-ns#"
   xmlns:svg="http://www.w3.org/2000/svg"
   xmlns="http://www.w3.org/2000/svg"
   xmlns:sodipodi="http://sodipodi.sourceforge.net/DTD/sodipodi-0.dtd"
   xmlns:inkscape="http://www.inkscape.org/namespaces/inkscape"
   width="16"
   height="16"
   viewBox="0 0 16 16"
   id="icon"
   version="1.1"
   sodipodi:docname="touch.svg"
   inkscape:version="0.92.4 (5da689c313, 2019-01-14)">
  <metadata
     id="metadata16">
    <rdf:RDF>
      <cc:Work
         rdf:about="">
        <dc:format>image/svg+xml</dc:format>
        <dc:type
           rdf:resource="http://purl.org/dc/dcmitype/StillImage" />
        <dc:title>touch-1</dc:title>
      </cc:Work>
    </rdf:RDF>
  </metadata>
  <sodipodi:namedview
     pagecolor="#ffffff"
     bordercolor="#666666"
     borderopacity="1"
     objecttolerance="10"
     gridtolerance="10"
     guidetolerance="10"
     inkscape:pageopacity="0"
     inkscape:pageshadow="2"
     inkscape:window-width="1814"
     inkscape:window-height="963"
     id="namedview14"
     showgrid="false"
     inkscape:zoom="14.75"
     inkscape:cx="17.627119"
     inkscape:cy="16"
     inkscape:window-x="0"
     inkscape:window-y="0"
     inkscape:window-maximized="1"
     inkscape:current-layer="icon" />
  <defs
     id="defs4">
    <style
       id="style2">.cls-1{fill:none;}</style>
  </defs>
  <title
     id="title6">touch-1</title>
  <path
     d="M 10.508475,3.9322034 H 9.4576271 a 2.6271187,2.6271187 0 0 0 -5.2542373,0 H 3.1525424 a 3.6779663,3.6779663 0 0 1 7.3559326,0 z"
     id="path8"
     inkscape:connector-curvature="0"
     style="stroke-width:0.52542371" />
  <path
     d="M 13.135593,7.6101695 A 1.5447458,1.5447458 0 0 0 12.36322,7.820339 1.5762712,1.5762712 0 0 0 11.033898,7.0847458 1.5447458,1.5447458 0 0 0 10.261525,7.2949153 1.5762712,1.5762712 0 0 0 8.4067797,6.6538983 v -2.7216949 0 a 1.5762712,1.5762712 0 0 0 -3.1525424,0 V 9.7644068 L 4.0825424,8.9657627 v 0 a 1.5394915,1.5394915 0 0 0 -0.93,-0.3047457 1.5762712,1.5762712 0 0 0 -1.1138983,2.695424 l 4.2033898,3.835593 a 3.2366102,3.2366102 0 0 0 2.1647458,0.824915 h 2.6271183 a 3.6779661,3.6779661 0 0 0 3.677966,-3.677966 V 9.1864407 A 1.5762712,1.5762712 0 0 0 13.135593,7.6101695 Z m 0.525424,4.7288135 a 2.6271186,2.6271186 0 0 1 -2.627119,2.627119 H 8.4067797 A 2.1910169,2.1910169 0 0 1 6.9566102,14.440678 L 2.7794915,10.605085 A 0.52542373,0.52542373 0 0 1 2.6271186,10.237288 0.52542373,0.52542373 0 0 1 3.4677966,9.8169492 L 6.3050847,11.761017 V 3.9322034 a 0.52542375,0.52542375 0 0 1 1.0508475,0 v 0 5.779661 H 8.4067797 V 8.1355932 a 0.52542373,0.52542373 0 0 1 1.0508474,0 V 9.7118644 H 10.508475 V 8.661017 a 0.52542373,0.52542373 0 0 1 1.050847,0 v 1.0508474 h 1.050847 V 9.1864407 a 0.525424,0.525424 0 0 1 1.050848,0 z"
     id="path10"
     inkscape:connector-curvature="0"
     style="stroke-width:0.52542371" />
  <rect
     id="_Transparent_Rectangle_"
     data-name="&lt;Transparent Rectangle&gt;"
     class="cls-1"
     width="16.813559"
     height="16.813559"
     x="0"
     y="-0.27118641"
     style="fill:none;stroke-width:0.52542371" />
</svg>
