<?xml version="1.0" encoding="UTF-8" standalone="no"?>
<!-- Generator: Adobe Illustrator 16.0.0, SVG Export Plug-In . SVG Version: 6.00 Build 0)  -->

<svg
   xmlns:dc="http://purl.org/dc/elements/1.1/"
   xmlns:cc="http://creativecommons.org/ns#"
   xmlns:rdf="http://www.w3.org/1999/02/22-rdf-syntax-ns#"
   xmlns:svg="http://www.w3.org/2000/svg"
   xmlns="http://www.w3.org/2000/svg"
   xmlns:sodipodi="http://sodipodi.sourceforge.net/DTD/sodipodi-0.dtd"
   xmlns:inkscape="http://www.inkscape.org/namespaces/inkscape"
   version="1.1"
   id="Capa_1"
   x="0px"
   y="0px"
   width="16"
   height="16"
   viewBox="0 0 16.000001 16.000001"
   xml:space="preserve"
   sodipodi:docname="zoom.svg"
   inkscape:version="0.92.4 (5da689c313, 2019-01-14)"><metadata
   id="metadata41"><rdf:RDF><cc:Work
       rdf:about=""><dc:format>image/svg+xml</dc:format><dc:type
         rdf:resource="http://purl.org/dc/dcmitype/StillImage" /><dc:title></dc:title></cc:Work></rdf:RDF></metadata><defs
   id="defs39" /><sodipodi:namedview
   pagecolor="#ffffff"
   bordercolor="#666666"
   borderopacity="1"
   objecttolerance="10"
   gridtolerance="10"
   guidetolerance="10"
   inkscape:pageopacity="0"
   inkscape:pageshadow="2"
   inkscape:window-width="876"
   inkscape:window-height="480"
   id="namedview37"
   showgrid="false"
   inkscape:zoom="6.1965029"
   inkscape:cx="20.979575"
   inkscape:cy="19.042999"
   inkscape:window-x="302"
   inkscape:window-y="192"
   inkscape:window-maximized="0"
   inkscape:current-layer="Capa_1" />
<g
   id="g4"
   transform="matrix(0.40677968,0,0,0.40677968,0.5036949,0.50738996)">
	<path
   d="M 28.451,14.074 C 28.451,6.313 22.138,0 14.378,0 6.618,0 0.305,6.313 0.305,14.074 c 0,7.761 6.312,14.072 14.072,14.072 7.761,0 14.074,-6.312 14.074,-14.072 z M 14.378,24.613 c -5.812,0 -10.539,-4.729 -10.539,-10.539 0,-5.812 4.729,-10.541 10.539,-10.541 5.812,0 10.54,4.729 10.54,10.541 0,5.812 -4.729,10.539 -10.54,10.539 z M 37.781,34.975 34.67,38.086 23.857,27.275 26.968,24.164 Z"
   id="path2"
   inkscape:connector-curvature="0" />
</g>
<g
   id="g6"
   transform="translate(0,-22.085999)">
</g>
<g
   id="g8"
   transform="translate(0,-22.085999)">
</g>
<g
   id="g10"
   transform="translate(0,-22.085999)">
</g>
<g
   id="g12"
   transform="translate(0,-22.085999)">
</g>
<g
   id="g14"
   transform="translate(0,-22.085999)">
</g>
<g
   id="g16"
   transform="translate(0,-22.085999)">
</g>
<g
   id="g18"
   transform="translate(0,-22.085999)">
</g>
<g
   id="g20"
   transform="translate(0,-22.085999)">
</g>
<g
   id="g22"
   transform="translate(0,-22.085999)">
</g>
<g
   id="g24"
   transform="translate(0,-22.085999)">
</g>
<g
   id="g26"
   transform="translate(0,-22.085999)">
</g>
<g
   id="g28"
   transform="translate(0,-22.085999)">
</g>
<g
   id="g30"
   transform="translate(0,-22.085999)">
</g>
<g
   id="g32"
   transform="translate(0,-22.085999)">
</g>
<g
   id="g34"
   transform="translate(0,-22.085999)">
</g>
</svg>